<mxfile host="Electron" modified="2023-08-30T05:43:27.420Z" agent="Mozilla/5.0 (Windows NT 10.0; Win64; x64) AppleWebKit/537.36 (KHTML, like Gecko) draw.io/21.6.5 Chrome/114.0.5735.243 Electron/25.3.1 Safari/537.36" etag="Qq43BLM1XbdHKpn00Ui_" version="21.6.5" type="device">
  <diagram name="Page-1" id="GcflGm3B8skS_2FgaHAI">
    <mxGraphModel dx="2987" dy="121" grid="1" gridSize="10" guides="1" tooltips="1" connect="1" arrows="1" fold="1" page="1" pageScale="1" pageWidth="827" pageHeight="1169" math="0" shadow="0">
      <root>
        <mxCell id="0" />
        <mxCell id="1" parent="0" />
        <mxCell id="UKy-RAXXKTXEw6ujRn6q-1" value="&lt;font style=&quot;font-size: 14px;&quot;&gt;Login Details&lt;/font&gt;" style="rounded=1;whiteSpace=wrap;html=1;" parent="1" vertex="1">
          <mxGeometry x="780" y="1750" width="120" height="60" as="geometry" />
        </mxCell>
        <mxCell id="UKy-RAXXKTXEw6ujRn6q-2" value="" style="rhombus;whiteSpace=wrap;html=1;" parent="1" vertex="1">
          <mxGeometry x="800" y="1880" width="80" height="80" as="geometry" />
        </mxCell>
        <mxCell id="UKy-RAXXKTXEw6ujRn6q-3" value="" style="rhombus;whiteSpace=wrap;html=1;" parent="1" vertex="1">
          <mxGeometry x="800" y="2020" width="80" height="80" as="geometry" />
        </mxCell>
        <mxCell id="UKy-RAXXKTXEw6ujRn6q-4" value="&lt;font style=&quot;font-size: 14px;&quot;&gt;Login Sucessful&lt;/font&gt;" style="rounded=1;whiteSpace=wrap;html=1;" parent="1" vertex="1">
          <mxGeometry x="780" y="2160" width="120" height="60" as="geometry" />
        </mxCell>
        <mxCell id="UKy-RAXXKTXEw6ujRn6q-5" value="" style="strokeWidth=2;html=1;shape=mxgraph.flowchart.start_2;whiteSpace=wrap;fillColor=#000000;" parent="1" vertex="1">
          <mxGeometry x="825" y="1680" width="30" height="30" as="geometry" />
        </mxCell>
        <mxCell id="UKy-RAXXKTXEw6ujRn6q-6" value="" style="endArrow=classic;html=1;rounded=0;exitX=0.5;exitY=1;exitDx=0;exitDy=0;exitPerimeter=0;entryX=0.5;entryY=0;entryDx=0;entryDy=0;" parent="1" source="UKy-RAXXKTXEw6ujRn6q-5" target="UKy-RAXXKTXEw6ujRn6q-1" edge="1">
          <mxGeometry width="50" height="50" relative="1" as="geometry">
            <mxPoint x="760" y="1910" as="sourcePoint" />
            <mxPoint x="810" y="1860" as="targetPoint" />
          </mxGeometry>
        </mxCell>
        <mxCell id="UKy-RAXXKTXEw6ujRn6q-7" value="" style="endArrow=classic;html=1;rounded=0;exitX=0.5;exitY=1;exitDx=0;exitDy=0;entryX=0.5;entryY=0;entryDx=0;entryDy=0;" parent="1" source="UKy-RAXXKTXEw6ujRn6q-1" target="UKy-RAXXKTXEw6ujRn6q-2" edge="1">
          <mxGeometry width="50" height="50" relative="1" as="geometry">
            <mxPoint x="760" y="1870" as="sourcePoint" />
            <mxPoint x="810" y="1820" as="targetPoint" />
          </mxGeometry>
        </mxCell>
        <mxCell id="UKy-RAXXKTXEw6ujRn6q-8" value="" style="endArrow=classic;html=1;rounded=0;exitX=0.5;exitY=1;exitDx=0;exitDy=0;entryX=0.5;entryY=0;entryDx=0;entryDy=0;" parent="1" source="UKy-RAXXKTXEw6ujRn6q-2" target="UKy-RAXXKTXEw6ujRn6q-3" edge="1">
          <mxGeometry width="50" height="50" relative="1" as="geometry">
            <mxPoint x="760" y="1870" as="sourcePoint" />
            <mxPoint x="810" y="1820" as="targetPoint" />
          </mxGeometry>
        </mxCell>
        <mxCell id="UKy-RAXXKTXEw6ujRn6q-9" value="" style="endArrow=classic;html=1;rounded=0;entryX=0.5;entryY=0;entryDx=0;entryDy=0;exitX=0.5;exitY=1;exitDx=0;exitDy=0;" parent="1" source="UKy-RAXXKTXEw6ujRn6q-3" target="UKy-RAXXKTXEw6ujRn6q-4" edge="1">
          <mxGeometry width="50" height="50" relative="1" as="geometry">
            <mxPoint x="760" y="2080" as="sourcePoint" />
            <mxPoint x="810" y="2030" as="targetPoint" />
          </mxGeometry>
        </mxCell>
        <mxCell id="UKy-RAXXKTXEw6ujRn6q-10" value="" style="ellipse;whiteSpace=wrap;html=1;aspect=fixed;" parent="1" vertex="1">
          <mxGeometry x="820" y="2270" width="40" height="40" as="geometry" />
        </mxCell>
        <mxCell id="UKy-RAXXKTXEw6ujRn6q-11" value="" style="endArrow=classic;html=1;rounded=0;exitX=0.5;exitY=1;exitDx=0;exitDy=0;entryX=0.5;entryY=0;entryDx=0;entryDy=0;" parent="1" source="UKy-RAXXKTXEw6ujRn6q-4" target="UKy-RAXXKTXEw6ujRn6q-10" edge="1">
          <mxGeometry width="50" height="50" relative="1" as="geometry">
            <mxPoint x="1100" y="2230" as="sourcePoint" />
            <mxPoint x="1150" y="2180" as="targetPoint" />
          </mxGeometry>
        </mxCell>
        <mxCell id="UKy-RAXXKTXEw6ujRn6q-12" value="" style="ellipse;shape=doubleEllipse;whiteSpace=wrap;html=1;aspect=fixed;fillColor=#000000;" parent="1" vertex="1">
          <mxGeometry x="826" y="2275.5" width="29" height="29" as="geometry" />
        </mxCell>
        <mxCell id="UKy-RAXXKTXEw6ujRn6q-13" value="&lt;font style=&quot;font-size: 14px;&quot;&gt;No&lt;/font&gt;" style="text;html=1;strokeColor=none;fillColor=none;align=center;verticalAlign=middle;whiteSpace=wrap;rounded=0;" parent="1" vertex="1">
          <mxGeometry x="870" y="1890" width="60" height="30" as="geometry" />
        </mxCell>
        <mxCell id="UKy-RAXXKTXEw6ujRn6q-14" value="&lt;font style=&quot;font-size: 14px;&quot;&gt;No&lt;/font&gt;" style="text;html=1;strokeColor=none;fillColor=none;align=center;verticalAlign=middle;whiteSpace=wrap;rounded=0;" parent="1" vertex="1">
          <mxGeometry x="875" y="2030" width="60" height="30" as="geometry" />
        </mxCell>
        <mxCell id="UKy-RAXXKTXEw6ujRn6q-15" value="&lt;font style=&quot;font-size: 14px;&quot;&gt;Yes&lt;/font&gt;" style="text;html=1;strokeColor=none;fillColor=none;align=center;verticalAlign=middle;whiteSpace=wrap;rounded=0;" parent="1" vertex="1">
          <mxGeometry x="830" y="2110" width="60" height="30" as="geometry" />
        </mxCell>
        <mxCell id="UKy-RAXXKTXEw6ujRn6q-16" value="" style="endArrow=classic;html=1;rounded=0;exitX=1;exitY=0.5;exitDx=0;exitDy=0;entryX=1;entryY=0.75;entryDx=0;entryDy=0;" parent="1" source="UKy-RAXXKTXEw6ujRn6q-2" target="UKy-RAXXKTXEw6ujRn6q-1" edge="1">
          <mxGeometry width="50" height="50" relative="1" as="geometry">
            <mxPoint x="1020" y="1950" as="sourcePoint" />
            <mxPoint x="900" y="1780" as="targetPoint" />
            <Array as="points">
              <mxPoint x="1000" y="1920" />
              <mxPoint x="1000" y="1795" />
            </Array>
          </mxGeometry>
        </mxCell>
        <mxCell id="UKy-RAXXKTXEw6ujRn6q-17" value="" style="endArrow=classic;html=1;rounded=0;exitX=1;exitY=0.5;exitDx=0;exitDy=0;entryX=1.033;entryY=0.378;entryDx=0;entryDy=0;entryPerimeter=0;" parent="1" source="UKy-RAXXKTXEw6ujRn6q-3" target="UKy-RAXXKTXEw6ujRn6q-1" edge="1">
          <mxGeometry width="50" height="50" relative="1" as="geometry">
            <mxPoint x="1020" y="1950" as="sourcePoint" />
            <mxPoint x="1070" y="1760" as="targetPoint" />
            <Array as="points">
              <mxPoint x="1070" y="2060" />
              <mxPoint x="1070" y="1773" />
            </Array>
          </mxGeometry>
        </mxCell>
        <mxCell id="UKy-RAXXKTXEw6ujRn6q-18" value="&lt;font style=&quot;font-size: 14px;&quot;&gt;verify&lt;/font&gt;" style="rounded=0;whiteSpace=wrap;html=1;" parent="1" vertex="1">
          <mxGeometry x="740" y="2035" width="50" height="20" as="geometry" />
        </mxCell>
        <mxCell id="UKy-RAXXKTXEw6ujRn6q-19" style="edgeStyle=orthogonalEdgeStyle;rounded=0;orthogonalLoop=1;jettySize=auto;html=1;exitX=0.5;exitY=1;exitDx=0;exitDy=0;" parent="1" edge="1">
          <mxGeometry relative="1" as="geometry">
            <mxPoint x="765" y="1920" as="sourcePoint" />
            <mxPoint x="765" y="1920" as="targetPoint" />
          </mxGeometry>
        </mxCell>
        <mxCell id="UKy-RAXXKTXEw6ujRn6q-20" value="&lt;font style=&quot;font-size: 14px;&quot;&gt;valid&lt;/font&gt;" style="rounded=0;whiteSpace=wrap;html=1;" parent="1" vertex="1">
          <mxGeometry x="740" y="1900" width="50" height="20" as="geometry" />
        </mxCell>
        <mxCell id="UKy-RAXXKTXEw6ujRn6q-21" value="&lt;font style=&quot;font-size: 14px;&quot;&gt;Yes&lt;/font&gt;" style="text;html=1;strokeColor=none;fillColor=none;align=center;verticalAlign=middle;whiteSpace=wrap;rounded=0;" parent="1" vertex="1">
          <mxGeometry x="830" y="1970" width="60" height="30" as="geometry" />
        </mxCell>
        <mxCell id="UKy-RAXXKTXEw6ujRn6q-22" value="" style="ellipse;whiteSpace=wrap;html=1;aspect=fixed;fillColor=#000000;" parent="1" vertex="1">
          <mxGeometry x="-500" y="1660" width="40" height="40" as="geometry" />
        </mxCell>
        <mxCell id="UKy-RAXXKTXEw6ujRn6q-23" value="Search Post" style="rounded=1;whiteSpace=wrap;html=1;" parent="1" vertex="1">
          <mxGeometry x="-540" y="1770" width="120" height="60" as="geometry" />
        </mxCell>
        <mxCell id="UKy-RAXXKTXEw6ujRn6q-24" value="" style="rhombus;whiteSpace=wrap;html=1;" parent="1" vertex="1">
          <mxGeometry x="-520" y="1881" width="80" height="80" as="geometry" />
        </mxCell>
        <mxCell id="UKy-RAXXKTXEw6ujRn6q-25" value="View" style="rounded=1;whiteSpace=wrap;html=1;" parent="1" vertex="1">
          <mxGeometry x="-540" y="2000" width="120" height="60" as="geometry" />
        </mxCell>
        <mxCell id="UKy-RAXXKTXEw6ujRn6q-26" value="Recieved Successfully" style="rounded=1;whiteSpace=wrap;html=1;" parent="1" vertex="1">
          <mxGeometry x="-540" y="2320" width="120" height="60" as="geometry" />
        </mxCell>
        <mxCell id="UKy-RAXXKTXEw6ujRn6q-27" value="" style="endArrow=classic;html=1;rounded=0;exitX=0.5;exitY=1;exitDx=0;exitDy=0;entryX=0.5;entryY=0;entryDx=0;entryDy=0;entryPerimeter=0;" parent="1" source="UKy-RAXXKTXEw6ujRn6q-22" target="UKy-RAXXKTXEw6ujRn6q-23" edge="1">
          <mxGeometry width="50" height="50" relative="1" as="geometry">
            <mxPoint x="-330" y="1890" as="sourcePoint" />
            <mxPoint x="-280" y="1840" as="targetPoint" />
          </mxGeometry>
        </mxCell>
        <mxCell id="UKy-RAXXKTXEw6ujRn6q-28" value="" style="endArrow=classic;html=1;rounded=0;exitX=0.5;exitY=1;exitDx=0;exitDy=0;exitPerimeter=0;" parent="1" source="UKy-RAXXKTXEw6ujRn6q-23" edge="1">
          <mxGeometry width="50" height="50" relative="1" as="geometry">
            <mxPoint x="-330" y="1890" as="sourcePoint" />
            <mxPoint x="-480" y="1880" as="targetPoint" />
          </mxGeometry>
        </mxCell>
        <mxCell id="UKy-RAXXKTXEw6ujRn6q-29" value="" style="endArrow=classic;html=1;rounded=0;exitX=0.5;exitY=1;exitDx=0;exitDy=0;entryX=0.5;entryY=0;entryDx=0;entryDy=0;" parent="1" source="UKy-RAXXKTXEw6ujRn6q-24" target="UKy-RAXXKTXEw6ujRn6q-25" edge="1">
          <mxGeometry width="50" height="50" relative="1" as="geometry">
            <mxPoint x="-330" y="2050" as="sourcePoint" />
            <mxPoint x="-480" y="1996" as="targetPoint" />
          </mxGeometry>
        </mxCell>
        <mxCell id="UKy-RAXXKTXEw6ujRn6q-30" value="" style="endArrow=classic;html=1;rounded=0;exitX=1;exitY=0.5;exitDx=0;exitDy=0;entryX=1;entryY=0.5;entryDx=0;entryDy=0;" parent="1" source="UKy-RAXXKTXEw6ujRn6q-24" target="UKy-RAXXKTXEw6ujRn6q-23" edge="1">
          <mxGeometry width="50" height="50" relative="1" as="geometry">
            <mxPoint x="-590" y="2020" as="sourcePoint" />
            <mxPoint x="-320" y="1800" as="targetPoint" />
            <Array as="points">
              <mxPoint x="-320" y="1920" />
              <mxPoint x="-320" y="1800" />
            </Array>
          </mxGeometry>
        </mxCell>
        <mxCell id="UKy-RAXXKTXEw6ujRn6q-31" value="&amp;nbsp;Not Found" style="text;html=1;strokeColor=none;fillColor=none;align=center;verticalAlign=middle;whiteSpace=wrap;rounded=0;" parent="1" vertex="1">
          <mxGeometry x="-450" y="1895.5" width="70" height="30" as="geometry" />
        </mxCell>
        <mxCell id="UKy-RAXXKTXEw6ujRn6q-32" value="" style="endArrow=classic;html=1;rounded=0;entryX=0.5;entryY=0;entryDx=0;entryDy=0;exitX=0.5;exitY=1;exitDx=0;exitDy=0;" parent="1" source="UKy-RAXXKTXEw6ujRn6q-25" target="UKy-RAXXKTXEw6ujRn6q-34" edge="1">
          <mxGeometry width="50" height="50" relative="1" as="geometry">
            <mxPoint x="-170" y="2090" as="sourcePoint" />
            <mxPoint x="-440" y="1950" as="targetPoint" />
          </mxGeometry>
        </mxCell>
        <mxCell id="UKy-RAXXKTXEw6ujRn6q-33" value="" style="endArrow=classic;html=1;rounded=0;exitX=0.5;exitY=1;exitDx=0;exitDy=0;entryX=0.5;entryY=0;entryDx=0;entryDy=0;" parent="1" source="UKy-RAXXKTXEw6ujRn6q-34" target="UKy-RAXXKTXEw6ujRn6q-35" edge="1">
          <mxGeometry width="50" height="50" relative="1" as="geometry">
            <mxPoint x="-440" y="2250" as="sourcePoint" />
            <mxPoint x="-390" y="2200" as="targetPoint" />
          </mxGeometry>
        </mxCell>
        <mxCell id="UKy-RAXXKTXEw6ujRn6q-34" value="Contact" style="rounded=1;whiteSpace=wrap;html=1;" parent="1" vertex="1">
          <mxGeometry x="-540" y="2110" width="120" height="60" as="geometry" />
        </mxCell>
        <mxCell id="UKy-RAXXKTXEw6ujRn6q-35" value="" style="rhombus;whiteSpace=wrap;html=1;" parent="1" vertex="1">
          <mxGeometry x="-520" y="2210" width="80" height="80" as="geometry" />
        </mxCell>
        <mxCell id="UKy-RAXXKTXEw6ujRn6q-36" value="" style="endArrow=classic;html=1;rounded=0;exitX=1;exitY=0.5;exitDx=0;exitDy=0;entryX=1.017;entryY=0.147;entryDx=0;entryDy=0;entryPerimeter=0;" parent="1" source="UKy-RAXXKTXEw6ujRn6q-35" target="UKy-RAXXKTXEw6ujRn6q-23" edge="1">
          <mxGeometry width="50" height="50" relative="1" as="geometry">
            <mxPoint x="-430" y="2210" as="sourcePoint" />
            <mxPoint x="-280" y="1780" as="targetPoint" />
            <Array as="points">
              <mxPoint x="-280" y="2250" />
              <mxPoint x="-280" y="1779" />
            </Array>
          </mxGeometry>
        </mxCell>
        <mxCell id="UKy-RAXXKTXEw6ujRn6q-37" value="Out of stock" style="text;html=1;strokeColor=none;fillColor=none;align=center;verticalAlign=middle;whiteSpace=wrap;rounded=0;" parent="1" vertex="1">
          <mxGeometry x="-450" y="2220" width="70" height="30" as="geometry" />
        </mxCell>
        <mxCell id="UKy-RAXXKTXEw6ujRn6q-38" value="" style="endArrow=classic;html=1;rounded=0;exitX=0.5;exitY=1;exitDx=0;exitDy=0;entryX=0.5;entryY=0;entryDx=0;entryDy=0;" parent="1" source="UKy-RAXXKTXEw6ujRn6q-35" target="UKy-RAXXKTXEw6ujRn6q-26" edge="1">
          <mxGeometry width="50" height="50" relative="1" as="geometry">
            <mxPoint x="-450" y="2310" as="sourcePoint" />
            <mxPoint x="-400" y="2260" as="targetPoint" />
          </mxGeometry>
        </mxCell>
        <mxCell id="UKy-RAXXKTXEw6ujRn6q-39" value="" style="ellipse;whiteSpace=wrap;html=1;aspect=fixed;" parent="1" vertex="1">
          <mxGeometry x="-505" y="2420" width="50" height="50" as="geometry" />
        </mxCell>
        <mxCell id="UKy-RAXXKTXEw6ujRn6q-40" value="" style="ellipse;whiteSpace=wrap;html=1;aspect=fixed;fillColor=#141414;" parent="1" vertex="1">
          <mxGeometry x="-500" y="2425" width="40" height="40" as="geometry" />
        </mxCell>
        <mxCell id="UKy-RAXXKTXEw6ujRn6q-41" value="" style="endArrow=classic;html=1;rounded=0;exitX=0.5;exitY=1;exitDx=0;exitDy=0;entryX=0.5;entryY=0;entryDx=0;entryDy=0;" parent="1" source="UKy-RAXXKTXEw6ujRn6q-26" target="UKy-RAXXKTXEw6ujRn6q-39" edge="1">
          <mxGeometry width="50" height="50" relative="1" as="geometry">
            <mxPoint x="-430" y="2280" as="sourcePoint" />
            <mxPoint x="-380" y="2230" as="targetPoint" />
          </mxGeometry>
        </mxCell>
        <mxCell id="UKy-RAXXKTXEw6ujRn6q-42" value="Found" style="rounded=0;whiteSpace=wrap;html=1;" parent="1" vertex="1">
          <mxGeometry x="-540" y="1961" width="50" height="20" as="geometry" />
        </mxCell>
        <mxCell id="UKy-RAXXKTXEw6ujRn6q-43" value="Sucessfully" style="rounded=0;whiteSpace=wrap;html=1;" parent="1" vertex="1">
          <mxGeometry x="-575" y="2280" width="70" height="20" as="geometry" />
        </mxCell>
        <mxCell id="UKy-RAXXKTXEw6ujRn6q-44" value="" style="ellipse;whiteSpace=wrap;html=1;aspect=fixed;fillColor=#000000;" parent="1" vertex="1">
          <mxGeometry x="20" y="1720" width="40" height="40" as="geometry" />
        </mxCell>
        <mxCell id="UKy-RAXXKTXEw6ujRn6q-45" value="Login" style="rounded=1;whiteSpace=wrap;html=1;" parent="1" vertex="1">
          <mxGeometry x="-20" y="1821" width="120" height="60" as="geometry" />
        </mxCell>
        <mxCell id="UKy-RAXXKTXEw6ujRn6q-46" value="" style="endArrow=classic;html=1;rounded=0;exitX=0.5;exitY=1;exitDx=0;exitDy=0;entryX=0.5;entryY=0;entryDx=0;entryDy=0;" parent="1" source="UKy-RAXXKTXEw6ujRn6q-44" target="UKy-RAXXKTXEw6ujRn6q-45" edge="1">
          <mxGeometry width="50" height="50" relative="1" as="geometry">
            <mxPoint x="-280" y="2090" as="sourcePoint" />
            <mxPoint x="40" y="1800" as="targetPoint" />
          </mxGeometry>
        </mxCell>
        <mxCell id="UKy-RAXXKTXEw6ujRn6q-47" value="" style="rhombus;whiteSpace=wrap;html=1;" parent="1" vertex="1">
          <mxGeometry y="1920" width="80" height="80" as="geometry" />
        </mxCell>
        <mxCell id="UKy-RAXXKTXEw6ujRn6q-48" value="" style="endArrow=classic;html=1;rounded=0;exitX=0.5;exitY=1;exitDx=0;exitDy=0;entryX=0.5;entryY=0;entryDx=0;entryDy=0;" parent="1" source="UKy-RAXXKTXEw6ujRn6q-45" target="UKy-RAXXKTXEw6ujRn6q-47" edge="1">
          <mxGeometry width="50" height="50" relative="1" as="geometry">
            <mxPoint x="-90" y="1960" as="sourcePoint" />
            <mxPoint x="-230" y="2040" as="targetPoint" />
          </mxGeometry>
        </mxCell>
        <mxCell id="UKy-RAXXKTXEw6ujRn6q-49" value="" style="endArrow=classic;html=1;rounded=0;exitX=1;exitY=0.5;exitDx=0;exitDy=0;" parent="1" source="UKy-RAXXKTXEw6ujRn6q-47" edge="1">
          <mxGeometry width="50" height="50" relative="1" as="geometry">
            <mxPoint x="-280" y="2090" as="sourcePoint" />
            <mxPoint x="100" y="1860" as="targetPoint" />
            <Array as="points">
              <mxPoint x="180" y="1960" />
              <mxPoint x="180" y="1860" />
            </Array>
          </mxGeometry>
        </mxCell>
        <mxCell id="UKy-RAXXKTXEw6ujRn6q-50" value="No" style="text;html=1;strokeColor=none;fillColor=none;align=center;verticalAlign=middle;whiteSpace=wrap;rounded=0;" parent="1" vertex="1">
          <mxGeometry x="60" y="1925.5" width="60" height="30" as="geometry" />
        </mxCell>
        <mxCell id="UKy-RAXXKTXEw6ujRn6q-51" value="Login Sucess" style="rounded=1;whiteSpace=wrap;html=1;" parent="1" vertex="1">
          <mxGeometry x="-20" y="2050" width="120" height="60" as="geometry" />
        </mxCell>
        <mxCell id="UKy-RAXXKTXEw6ujRn6q-52" value="" style="endArrow=classic;html=1;rounded=0;exitX=0.5;exitY=1;exitDx=0;exitDy=0;entryX=0.5;entryY=0;entryDx=0;entryDy=0;" parent="1" source="UKy-RAXXKTXEw6ujRn6q-47" target="UKy-RAXXKTXEw6ujRn6q-51" edge="1">
          <mxGeometry width="50" height="50" relative="1" as="geometry">
            <mxPoint x="-30" y="2080" as="sourcePoint" />
            <mxPoint x="20" y="2030" as="targetPoint" />
          </mxGeometry>
        </mxCell>
        <mxCell id="UKy-RAXXKTXEw6ujRn6q-53" value="Yes" style="text;html=1;strokeColor=none;fillColor=none;align=center;verticalAlign=middle;whiteSpace=wrap;rounded=0;" parent="1" vertex="1">
          <mxGeometry x="-20" y="1990" width="60" height="30" as="geometry" />
        </mxCell>
        <mxCell id="UKy-RAXXKTXEw6ujRn6q-54" value="add Posts" style="rounded=1;whiteSpace=wrap;html=1;" parent="1" vertex="1">
          <mxGeometry x="-20" y="2160" width="120" height="60" as="geometry" />
        </mxCell>
        <mxCell id="UKy-RAXXKTXEw6ujRn6q-55" value="" style="endArrow=classic;html=1;rounded=0;exitX=0.5;exitY=1;exitDx=0;exitDy=0;entryX=0.5;entryY=0;entryDx=0;entryDy=0;" parent="1" source="UKy-RAXXKTXEw6ujRn6q-51" target="UKy-RAXXKTXEw6ujRn6q-54" edge="1">
          <mxGeometry width="50" height="50" relative="1" as="geometry">
            <mxPoint x="260" y="2160" as="sourcePoint" />
            <mxPoint x="310" y="2110" as="targetPoint" />
          </mxGeometry>
        </mxCell>
        <mxCell id="UKy-RAXXKTXEw6ujRn6q-56" value="" style="rhombus;whiteSpace=wrap;html=1;" parent="1" vertex="1">
          <mxGeometry y="2270" width="80" height="80" as="geometry" />
        </mxCell>
        <mxCell id="UKy-RAXXKTXEw6ujRn6q-57" value="" style="endArrow=classic;html=1;rounded=0;exitX=0.5;exitY=1;exitDx=0;exitDy=0;entryX=0.5;entryY=0;entryDx=0;entryDy=0;" parent="1" source="UKy-RAXXKTXEw6ujRn6q-54" target="UKy-RAXXKTXEw6ujRn6q-56" edge="1">
          <mxGeometry width="50" height="50" relative="1" as="geometry">
            <mxPoint x="260" y="2160" as="sourcePoint" />
            <mxPoint x="310" y="2110" as="targetPoint" />
          </mxGeometry>
        </mxCell>
        <mxCell id="UKy-RAXXKTXEw6ujRn6q-58" value="" style="endArrow=classic;html=1;rounded=0;exitX=1;exitY=0.5;exitDx=0;exitDy=0;entryX=1;entryY=0.5;entryDx=0;entryDy=0;" parent="1" source="UKy-RAXXKTXEw6ujRn6q-56" target="UKy-RAXXKTXEw6ujRn6q-54" edge="1">
          <mxGeometry width="50" height="50" relative="1" as="geometry">
            <mxPoint x="260" y="2160" as="sourcePoint" />
            <mxPoint x="200" y="2190" as="targetPoint" />
            <Array as="points">
              <mxPoint x="200" y="2310" />
              <mxPoint x="200" y="2190" />
            </Array>
          </mxGeometry>
        </mxCell>
        <mxCell id="UKy-RAXXKTXEw6ujRn6q-59" value="Not Added" style="text;html=1;strokeColor=none;fillColor=none;align=center;verticalAlign=middle;whiteSpace=wrap;rounded=0;" parent="1" vertex="1">
          <mxGeometry x="80" y="2275" width="60" height="30" as="geometry" />
        </mxCell>
        <mxCell id="UKy-RAXXKTXEw6ujRn6q-60" value="Added" style="rounded=0;whiteSpace=wrap;html=1;" parent="1" vertex="1">
          <mxGeometry x="-40" y="2330" width="50" height="20" as="geometry" />
        </mxCell>
        <mxCell id="UKy-RAXXKTXEw6ujRn6q-61" value="View Added Posts" style="rounded=1;whiteSpace=wrap;html=1;" parent="1" vertex="1">
          <mxGeometry x="-20" y="2380" width="120" height="60" as="geometry" />
        </mxCell>
        <mxCell id="UKy-RAXXKTXEw6ujRn6q-62" value="" style="endArrow=classic;html=1;rounded=0;exitX=0.5;exitY=1;exitDx=0;exitDy=0;entryX=0.5;entryY=0;entryDx=0;entryDy=0;" parent="1" source="UKy-RAXXKTXEw6ujRn6q-56" target="UKy-RAXXKTXEw6ujRn6q-61" edge="1">
          <mxGeometry width="50" height="50" relative="1" as="geometry">
            <mxPoint x="260" y="2190" as="sourcePoint" />
            <mxPoint x="310" y="2140" as="targetPoint" />
          </mxGeometry>
        </mxCell>
        <mxCell id="UKy-RAXXKTXEw6ujRn6q-63" value="" style="ellipse;whiteSpace=wrap;html=1;aspect=fixed;" parent="1" vertex="1">
          <mxGeometry x="15" y="2490" width="50" height="50" as="geometry" />
        </mxCell>
        <mxCell id="UKy-RAXXKTXEw6ujRn6q-64" value="" style="ellipse;whiteSpace=wrap;html=1;aspect=fixed;fillColor=#080808;" parent="1" vertex="1">
          <mxGeometry x="20" y="2495" width="40" height="40" as="geometry" />
        </mxCell>
        <mxCell id="UKy-RAXXKTXEw6ujRn6q-65" value="" style="endArrow=classic;html=1;rounded=0;exitX=0.5;exitY=1;exitDx=0;exitDy=0;entryX=0.5;entryY=0;entryDx=0;entryDy=0;" parent="1" source="UKy-RAXXKTXEw6ujRn6q-61" target="UKy-RAXXKTXEw6ujRn6q-63" edge="1">
          <mxGeometry width="50" height="50" relative="1" as="geometry">
            <mxPoint x="260" y="2550" as="sourcePoint" />
            <mxPoint x="310" y="2500" as="targetPoint" />
          </mxGeometry>
        </mxCell>
        <mxCell id="UKy-RAXXKTXEw6ujRn6q-66" value="" style="ellipse;whiteSpace=wrap;html=1;aspect=fixed;fillColor=#000000;" parent="1" vertex="1">
          <mxGeometry x="474" y="2380" width="40" height="40" as="geometry" />
        </mxCell>
        <mxCell id="UKy-RAXXKTXEw6ujRn6q-67" value="Admin Login" style="rounded=1;whiteSpace=wrap;html=1;" parent="1" vertex="1">
          <mxGeometry x="434" y="2481" width="120" height="60" as="geometry" />
        </mxCell>
        <mxCell id="UKy-RAXXKTXEw6ujRn6q-68" value="" style="endArrow=classic;html=1;rounded=0;exitX=0.5;exitY=1;exitDx=0;exitDy=0;entryX=0.5;entryY=0;entryDx=0;entryDy=0;" parent="1" source="UKy-RAXXKTXEw6ujRn6q-66" target="UKy-RAXXKTXEw6ujRn6q-67" edge="1">
          <mxGeometry width="50" height="50" relative="1" as="geometry">
            <mxPoint x="174" y="2750" as="sourcePoint" />
            <mxPoint x="494" y="2460" as="targetPoint" />
          </mxGeometry>
        </mxCell>
        <mxCell id="UKy-RAXXKTXEw6ujRn6q-69" value="" style="rhombus;whiteSpace=wrap;html=1;" parent="1" vertex="1">
          <mxGeometry x="454" y="2580" width="80" height="80" as="geometry" />
        </mxCell>
        <mxCell id="UKy-RAXXKTXEw6ujRn6q-70" value="" style="endArrow=classic;html=1;rounded=0;exitX=0.5;exitY=1;exitDx=0;exitDy=0;entryX=0.5;entryY=0;entryDx=0;entryDy=0;" parent="1" source="UKy-RAXXKTXEw6ujRn6q-67" target="UKy-RAXXKTXEw6ujRn6q-69" edge="1">
          <mxGeometry width="50" height="50" relative="1" as="geometry">
            <mxPoint x="364" y="2620" as="sourcePoint" />
            <mxPoint x="224" y="2700" as="targetPoint" />
          </mxGeometry>
        </mxCell>
        <mxCell id="UKy-RAXXKTXEw6ujRn6q-71" value="" style="endArrow=classic;html=1;rounded=0;exitX=1;exitY=0.5;exitDx=0;exitDy=0;" parent="1" source="UKy-RAXXKTXEw6ujRn6q-69" edge="1">
          <mxGeometry width="50" height="50" relative="1" as="geometry">
            <mxPoint x="174" y="2750" as="sourcePoint" />
            <mxPoint x="554" y="2520" as="targetPoint" />
            <Array as="points">
              <mxPoint x="634" y="2620" />
              <mxPoint x="634" y="2520" />
            </Array>
          </mxGeometry>
        </mxCell>
        <mxCell id="UKy-RAXXKTXEw6ujRn6q-72" value="No" style="text;html=1;strokeColor=none;fillColor=none;align=center;verticalAlign=middle;whiteSpace=wrap;rounded=0;" parent="1" vertex="1">
          <mxGeometry x="514" y="2585.5" width="60" height="30" as="geometry" />
        </mxCell>
        <mxCell id="UKy-RAXXKTXEw6ujRn6q-73" value="Login Sucess" style="rounded=1;whiteSpace=wrap;html=1;" parent="1" vertex="1">
          <mxGeometry x="434" y="2710" width="120" height="60" as="geometry" />
        </mxCell>
        <mxCell id="UKy-RAXXKTXEw6ujRn6q-74" value="" style="endArrow=classic;html=1;rounded=0;exitX=0.5;exitY=1;exitDx=0;exitDy=0;entryX=0.5;entryY=0;entryDx=0;entryDy=0;" parent="1" source="UKy-RAXXKTXEw6ujRn6q-69" target="UKy-RAXXKTXEw6ujRn6q-73" edge="1">
          <mxGeometry width="50" height="50" relative="1" as="geometry">
            <mxPoint x="424" y="2740" as="sourcePoint" />
            <mxPoint x="474" y="2690" as="targetPoint" />
          </mxGeometry>
        </mxCell>
        <mxCell id="UKy-RAXXKTXEw6ujRn6q-75" value="Yes" style="text;html=1;strokeColor=none;fillColor=none;align=center;verticalAlign=middle;whiteSpace=wrap;rounded=0;" parent="1" vertex="1">
          <mxGeometry x="434" y="2650" width="60" height="30" as="geometry" />
        </mxCell>
        <mxCell id="UKy-RAXXKTXEw6ujRn6q-76" value="Camp Management" style="rounded=1;whiteSpace=wrap;html=1;" parent="1" vertex="1">
          <mxGeometry x="519" y="2820" width="120" height="60" as="geometry" />
        </mxCell>
        <mxCell id="UKy-RAXXKTXEw6ujRn6q-77" value="" style="endArrow=classic;html=1;rounded=0;exitX=0.5;exitY=1;exitDx=0;exitDy=0;entryX=0.5;entryY=0;entryDx=0;entryDy=0;" parent="1" source="UKy-RAXXKTXEw6ujRn6q-73" target="UKy-RAXXKTXEw6ujRn6q-76" edge="1">
          <mxGeometry width="50" height="50" relative="1" as="geometry">
            <mxPoint x="714" y="2820" as="sourcePoint" />
            <mxPoint x="764" y="2770" as="targetPoint" />
          </mxGeometry>
        </mxCell>
        <mxCell id="UKy-RAXXKTXEw6ujRn6q-78" value="" style="rhombus;whiteSpace=wrap;html=1;" parent="1" vertex="1">
          <mxGeometry x="540" y="2930" width="80" height="80" as="geometry" />
        </mxCell>
        <mxCell id="UKy-RAXXKTXEw6ujRn6q-79" value="" style="endArrow=classic;html=1;rounded=0;exitX=0.5;exitY=1;exitDx=0;exitDy=0;entryX=0.5;entryY=0;entryDx=0;entryDy=0;" parent="1" source="UKy-RAXXKTXEw6ujRn6q-76" target="UKy-RAXXKTXEw6ujRn6q-78" edge="1">
          <mxGeometry width="50" height="50" relative="1" as="geometry">
            <mxPoint x="714" y="2820" as="sourcePoint" />
            <mxPoint x="764" y="2770" as="targetPoint" />
          </mxGeometry>
        </mxCell>
        <mxCell id="UKy-RAXXKTXEw6ujRn6q-80" value="" style="endArrow=classic;html=1;rounded=0;exitX=1;exitY=0.5;exitDx=0;exitDy=0;entryX=1;entryY=0.5;entryDx=0;entryDy=0;" parent="1" source="UKy-RAXXKTXEw6ujRn6q-78" target="UKy-RAXXKTXEw6ujRn6q-76" edge="1">
          <mxGeometry width="50" height="50" relative="1" as="geometry">
            <mxPoint x="714" y="2820" as="sourcePoint" />
            <mxPoint x="654" y="2850" as="targetPoint" />
            <Array as="points">
              <mxPoint x="654" y="2970" />
              <mxPoint x="654" y="2850" />
            </Array>
          </mxGeometry>
        </mxCell>
        <mxCell id="UKy-RAXXKTXEw6ujRn6q-81" value="Not Managed" style="text;html=1;strokeColor=none;fillColor=none;align=center;verticalAlign=middle;whiteSpace=wrap;rounded=0;" parent="1" vertex="1">
          <mxGeometry x="660" y="2950" width="60" height="30" as="geometry" />
        </mxCell>
        <mxCell id="UKy-RAXXKTXEw6ujRn6q-82" value="Managed" style="rounded=0;whiteSpace=wrap;html=1;" parent="1" vertex="1">
          <mxGeometry x="504" y="3000" width="50" height="20" as="geometry" />
        </mxCell>
        <mxCell id="UKy-RAXXKTXEw6ujRn6q-83" value="View Added Posts &amp;amp; Camps" style="rounded=1;whiteSpace=wrap;html=1;" parent="1" vertex="1">
          <mxGeometry x="434" y="3070" width="120" height="60" as="geometry" />
        </mxCell>
        <mxCell id="UKy-RAXXKTXEw6ujRn6q-84" value="" style="endArrow=classic;html=1;rounded=0;exitX=0.5;exitY=1;exitDx=0;exitDy=0;entryX=0.5;entryY=0;entryDx=0;entryDy=0;" parent="1" source="UKy-RAXXKTXEw6ujRn6q-78" target="UKy-RAXXKTXEw6ujRn6q-83" edge="1">
          <mxGeometry width="50" height="50" relative="1" as="geometry">
            <mxPoint x="714" y="2850" as="sourcePoint" />
            <mxPoint x="764" y="2800" as="targetPoint" />
            <Array as="points">
              <mxPoint x="580" y="3030" />
              <mxPoint x="494" y="3030" />
            </Array>
          </mxGeometry>
        </mxCell>
        <mxCell id="UKy-RAXXKTXEw6ujRn6q-85" value="" style="ellipse;whiteSpace=wrap;html=1;aspect=fixed;" parent="1" vertex="1">
          <mxGeometry x="469" y="3180" width="50" height="50" as="geometry" />
        </mxCell>
        <mxCell id="UKy-RAXXKTXEw6ujRn6q-86" value="" style="ellipse;whiteSpace=wrap;html=1;aspect=fixed;fillColor=#080808;" parent="1" vertex="1">
          <mxGeometry x="474" y="3185" width="40" height="40" as="geometry" />
        </mxCell>
        <mxCell id="UKy-RAXXKTXEw6ujRn6q-87" value="" style="endArrow=classic;html=1;rounded=0;exitX=0.5;exitY=1;exitDx=0;exitDy=0;entryX=0.5;entryY=0;entryDx=0;entryDy=0;" parent="1" source="UKy-RAXXKTXEw6ujRn6q-83" target="UKy-RAXXKTXEw6ujRn6q-85" edge="1">
          <mxGeometry width="50" height="50" relative="1" as="geometry">
            <mxPoint x="714" y="3210" as="sourcePoint" />
            <mxPoint x="764" y="3160" as="targetPoint" />
          </mxGeometry>
        </mxCell>
        <mxCell id="O_l5-SdKe9-oM9_lBMLu-1" value="Blood Bank Management" style="rounded=1;whiteSpace=wrap;html=1;" vertex="1" parent="1">
          <mxGeometry x="334" y="2820" width="120" height="60" as="geometry" />
        </mxCell>
        <mxCell id="O_l5-SdKe9-oM9_lBMLu-2" value="" style="endArrow=classic;html=1;rounded=0;exitX=0.5;exitY=1;exitDx=0;exitDy=0;entryX=0.643;entryY=-0.025;entryDx=0;entryDy=0;entryPerimeter=0;" edge="1" parent="1" source="UKy-RAXXKTXEw6ujRn6q-73" target="O_l5-SdKe9-oM9_lBMLu-1">
          <mxGeometry width="50" height="50" relative="1" as="geometry">
            <mxPoint x="504" y="2780" as="sourcePoint" />
            <mxPoint x="589" y="2830" as="targetPoint" />
          </mxGeometry>
        </mxCell>
        <mxCell id="O_l5-SdKe9-oM9_lBMLu-4" value="" style="rhombus;whiteSpace=wrap;html=1;" vertex="1" parent="1">
          <mxGeometry x="360" y="2930" width="80" height="80" as="geometry" />
        </mxCell>
        <mxCell id="O_l5-SdKe9-oM9_lBMLu-5" value="Not Managed" style="text;html=1;strokeColor=none;fillColor=none;align=center;verticalAlign=middle;whiteSpace=wrap;rounded=0;" vertex="1" parent="1">
          <mxGeometry x="240" y="2955" width="60" height="30" as="geometry" />
        </mxCell>
        <mxCell id="O_l5-SdKe9-oM9_lBMLu-6" value="Managed" style="rounded=0;whiteSpace=wrap;html=1;" vertex="1" parent="1">
          <mxGeometry x="430" y="3000" width="50" height="20" as="geometry" />
        </mxCell>
        <mxCell id="O_l5-SdKe9-oM9_lBMLu-7" value="" style="endArrow=classic;html=1;rounded=0;exitX=0;exitY=0.5;exitDx=0;exitDy=0;entryX=0;entryY=0.5;entryDx=0;entryDy=0;" edge="1" parent="1" source="O_l5-SdKe9-oM9_lBMLu-4" target="O_l5-SdKe9-oM9_lBMLu-1">
          <mxGeometry width="50" height="50" relative="1" as="geometry">
            <mxPoint x="280" y="2970" as="sourcePoint" />
            <mxPoint x="299" y="2850" as="targetPoint" />
            <Array as="points">
              <mxPoint x="314" y="2970" />
              <mxPoint x="314" y="2850" />
            </Array>
          </mxGeometry>
        </mxCell>
        <mxCell id="O_l5-SdKe9-oM9_lBMLu-8" value="" style="endArrow=classic;html=1;rounded=0;exitX=0.5;exitY=1;exitDx=0;exitDy=0;entryX=0.392;entryY=0.006;entryDx=0;entryDy=0;entryPerimeter=0;" edge="1" parent="1" source="O_l5-SdKe9-oM9_lBMLu-4" target="UKy-RAXXKTXEw6ujRn6q-83">
          <mxGeometry width="50" height="50" relative="1" as="geometry">
            <mxPoint x="590" y="3020" as="sourcePoint" />
            <mxPoint x="504" y="3080" as="targetPoint" />
            <Array as="points">
              <mxPoint x="400" y="3030" />
              <mxPoint x="480" y="3030" />
            </Array>
          </mxGeometry>
        </mxCell>
      </root>
    </mxGraphModel>
  </diagram>
</mxfile>
